<?xml version="1.0" encoding="utf-8"?>
<!-- Generator: Adobe Illustrator 15.1.0, SVG Export Plug-In . SVG Version: 6.00 Build 0)  -->
<!DOCTYPE svg PUBLIC "-//W3C//DTD SVG 1.0//EN" "http://www.w3.org/TR/2001/REC-SVG-20010904/DTD/svg10.dtd">
<svg version="1.0" xmlns="http://www.w3.org/2000/svg" xmlns:xlink="http://www.w3.org/1999/xlink" x="0px" y="0px" width="3168px"
	 height="1584px" viewBox="0 0 3168 1584" enable-background="new 0 0 3168 1584" xml:space="preserve">
<g id="Layer_1">
	
		<image display="none" overflow="visible" width="2040" height="2100" xlink:href="SnapTemplate.jpg"  transform="matrix(0.0945 0 0 0.0945 1488 693)">
	</image>
	<rect x="1322.167" y="530" fill="#0099F7" stroke="#000000" stroke-miterlimit="10" width="208.833" height="7.333"/>
	<rect x="1617.667" y="530" fill="#0099F7" stroke="#000000" stroke-miterlimit="10" width="198.834" height="7.333"/>
	<rect x="1574.833" y="545.334" fill="#F40000" stroke="#000000" stroke-miterlimit="10" width="144" height="2.833"/>
	<rect x="1574.833" y="542.334" fill="#F40000" stroke="#000000" stroke-miterlimit="10" width="144" height="2.833"/>
	<polygon fill="#00F411" stroke="#000000" stroke-miterlimit="10" points="1574.75,530.25 1531.5,530.25 1531.5,536.5 1398,536.5 
		1398,554 1718.25,554 1718.25,548.75 1565,548.75 	"/>
	<polygon fill="#00F411" stroke="#000000" stroke-miterlimit="10" points="1575,530 1575,541.75 1718.25,541.75 1718.25,537.333 
		1617.666,537.333 1617.666,530 	"/>
	
		<rect x="1506.041" y="715.965" fill="none" stroke="#000000" stroke-width="0.9284" stroke-miterlimit="10" width="184.252" height="153.07"/>
	
		<rect x="1506.041" y="715.988" fill="none" stroke="#000000" stroke-width="0.536" stroke-miterlimit="10" width="184.252" height="51.023"/>
	
		<rect x="1506.041" y="817.655" fill="none" stroke="#000000" stroke-width="0.536" stroke-miterlimit="10" width="184.252" height="51.023"/>
	
		<ellipse fill="#FFFFFF" stroke="#000000" stroke-width="1.1272" stroke-miterlimit="10" cx="1618.391" cy="791.945" rx="39.288" ry="37.417"/>
	<circle fill="#FFFFFF" stroke="#000000" stroke-miterlimit="10" cx="1618.39" cy="791.946" r="18.425"/>
	<circle fill="none" stroke="#000000" stroke-width="1.1538" stroke-miterlimit="10" cx="1618.39" cy="791.946" r="21.26"/>
	<path fill="none" stroke="#000000" stroke-miterlimit="10" d="M1613.834,755c0,0-22.834,3.667-22.834-23.333
		c0-23.118-0.333-16-0.333-16"/>
	<path fill="none" stroke="#000000" stroke-miterlimit="10" d="M1612.834,829c0,0-22.834-3.666-22.834,23.334
		c0,23.117-0.333,15.666-0.333,15.666"/>
	
		<rect x="1506.041" y="868.631" fill="none" stroke="#000000" stroke-width="0.9284" stroke-miterlimit="10" width="184.252" height="153.07"/>
	
		<rect x="1506.041" y="868.654" fill="none" stroke="#000000" stroke-width="0.536" stroke-miterlimit="10" width="184.252" height="51.023"/>
	
		<rect x="1506.041" y="970.322" fill="none" stroke="#000000" stroke-width="0.536" stroke-miterlimit="10" width="184.252" height="51.023"/>
	
		<ellipse fill="#FFFFFF" stroke="#000000" stroke-width="1.1272" stroke-miterlimit="10" cx="1577.943" cy="944.611" rx="39.288" ry="37.418"/>
	<circle fill="#FFFFFF" stroke="#000000" stroke-miterlimit="10" cx="1577.944" cy="944.612" r="18.425"/>
	<circle fill="none" stroke="#000000" stroke-width="1.1538" stroke-miterlimit="10" cx="1577.944" cy="944.612" r="21.26"/>
	<path fill="none" stroke="#000000" stroke-miterlimit="10" d="M1582.5,907.666c0,0,22.834,3.668,22.834-23.332
		c0-23.119,0.333-15.667,0.333-15.667"/>
	<path fill="none" stroke="#000000" stroke-miterlimit="10" d="M1583.5,981.666c0,0,22.834-3.666,22.834,23.334
		c0,23.117,0.333,17.333,0.333,17.333"/>
</g>
<g id="Layer_2">
</g>
</svg>
